<svg width="64" height="64" viewBox="0 0 64 64" fill="none" xmlns="http://www.w3.org/2000/svg">
  <defs>
    <linearGradient id="sl-grad" x1="0" y1="0" x2="64" y2="64" gradientUnits="userSpaceOnUse">
      <stop stop-color="#53b1e8"/>
      <stop offset="1" stop-color="#6ec1f0"/>
    </linearGradient>
    <filter id="sl-glow">
      <feGaussianBlur stdDeviation="2" result="blur1"/>
      <feGaussianBlur stdDeviation="4" result="blur2"/>
      <feMerge>
        <feMergeNode in="blur2"/>
        <feMergeNode in="blur1"/>
        <feMergeNode in="SourceGraphic"/>
      </feMerge>
    </filter>
  </defs>
  <g filter="url(#sl-glow)" stroke="url(#sl-grad)" stroke-width="3.5" stroke-linecap="round" stroke-linejoin="round">
    <path d="M22 16 C16 16, 14 20, 14 24 C14 28, 16 32, 22 32"/>
    <path d="M22 16 L42 16"/>
    <path d="M42 16 C48 16, 50 20, 50 24 C50 28, 48 32, 42 32"/>
    <path d="M42 48 C48 48, 50 44, 50 40 C50 36, 48 32, 42 32"/>
    <path d="M42 48 L22 48"/>
    <path d="M22 48 C16 48, 14 44, 14 40 C14 36, 16 32, 22 32"/>
  </g>
</svg>
