<svg width="64" height="64" viewBox="0 0 64 64" fill="none" xmlns="http://www.w3.org/2000/svg">
  <g stroke="#53b1e8" stroke-width="4.5" stroke-linecap="round" stroke-linejoin="round" fill="none">
    <path d="M22 16 C16 16, 14 20, 14 24 C14 28, 16 32, 22 32"/>
    <path d="M22 16 L42 16"/>
    <path d="M42 16 C48 16, 50 20, 50 24 C50 28, 48 32, 42 32"/>
    <path d="M42 48 C48 48, 50 44, 50 40 C50 36, 48 32, 42 32"/>
    <path d="M42 48 L22 48"/>
    <path d="M22 48 C16 48, 14 44, 14 40 C14 36, 16 32, 22 32"/>
  </g>
</svg>
